<?xml version="1.0" standalone="no"?>
<!DOCTYPE svg PUBLIC "-//W3C//DTD SVG 20010904//EN"
 "http://www.w3.org/TR/2001/REC-SVG-20010904/DTD/svg10.dtd">
<svg version="1.0" xmlns="http://www.w3.org/2000/svg"
 width="512.000000pt" height="512.000000pt" viewBox="0 0 512.000000 512.000000"
 preserveAspectRatio="xMidYMid meet">

<g transform="translate(0.000000,512.000000) scale(0.100000,-0.100000)"
fill="#000000" stroke="none">
<path d="M2420 4719 c-291 -15 -631 -110 -880 -246 -620 -339 -1027 -923
-1125 -1613 -22 -157 -22 -441 0 -596 70 -492 296 -935 646 -1268 336 -319
739 -514 1204 -581 147 -21 443 -21 595 0 1022 144 1798 982 1859 2007 47 788
-318 1521 -970 1950 -388 255 -835 372 -1329 347z m260 -1027 l0 -129 103 -6
c111 -6 276 -44 419 -97 l87 -32 -69 -138 -70 -139 -57 20 c-79 27 -233 66
-318 79 -38 6 -80 13 -93 16 l-22 4 2 -286 3 -286 90 -32 c185 -67 399 -192
457 -268 86 -113 115 -259 83 -413 -50 -237 -238 -390 -536 -437 l-79 -12 0
-168 0 -168 -110 0 -110 0 0 170 0 170 -83 0 c-160 0 -353 35 -484 87 l-63 25
0 169 0 168 68 -26 c258 -99 390 -133 525 -133 l37 0 -2 297 -3 297 -78 22
c-248 72 -415 193 -495 361 -125 265 -17 529 277 678 58 29 225 75 272 75 l29
0 0 130 0 130 110 0 110 0 0 -128z"/>
<path d="M2395 3250 c-140 -40 -185 -93 -185 -220 0 -104 60 -182 184 -241
l61 -29 3 131 c1 71 1 185 0 253 l-3 123 -60 -17z"/>
<path d="M2660 2095 l0 -245 28 6 c126 27 193 69 226 138 22 46 20 140 -3 191
-25 56 -66 88 -161 124 -45 17 -84 31 -86 31 -2 0 -4 -110 -4 -245z"/>
</g>
</svg>
