<?xml version="1.0" standalone="no"?>
<!DOCTYPE svg PUBLIC "-//W3C//DTD SVG 20010904//EN"
 "http://www.w3.org/TR/2001/REC-SVG-20010904/DTD/svg10.dtd">
<svg version="1.0" xmlns="http://www.w3.org/2000/svg"
 width="225.000000pt" height="225.000000pt" viewBox="0 0 225.000000 225.000000"
 preserveAspectRatio="xMidYMid meet">

<g transform="translate(0.000000,225.000000) scale(0.100000,-0.100000)"
fill="#000000" stroke="none">
<path d="M305 2225 c-24 -24 -25 -28 -25 -183 0 -146 2 -162 21 -186 25 -32
70 -35 99 -6 18 18 20 33 20 189 l0 170 -26 20 c-35 27 -59 26 -89 -4z"/>
<path d="M1445 2238 c-11 -6 -23 -16 -27 -22 -4 -6 -8 -86 -8 -178 0 -155 2
-170 20 -188 25 -25 61 -26 91 -1 24 19 24 23 24 191 0 168 0 172 -24 191 -26
22 -47 23 -76 7z"/>
<path d="M104 1959 c-41 -12 -91 -69 -99 -111 -3 -18 -5 -324 -3 -680 3 -635
3 -647 24 -674 11 -15 33 -37 48 -48 27 -20 41 -21 467 -24 l439 -3 0 70 0 71
-417 2 -418 3 -3 493 -2 492 775 0 775 0 0 -140 0 -140 70 0 70 0 0 283 c0
253 -2 286 -19 323 -25 55 -68 84 -136 91 l-55 6 0 -47 c0 -97 -48 -157 -132
-163 -92 -7 -144 44 -155 153 l-6 54 -418 0 -419 0 0 -55 c0 -100 -51 -155
-143 -155 -42 0 -53 5 -89 39 -40 36 -42 42 -46 105 l-4 66 -37 -1 c-20 0 -50
-5 -67 -10z"/>
<path d="M280 1265 l0 -135 140 0 140 0 0 135 0 135 -140 0 -140 0 0 -135z"/>
<path d="M700 1265 l0 -135 140 0 140 0 0 135 0 135 -140 0 -140 0 0 -135z"/>
<path d="M1130 1265 l0 -135 135 0 135 0 0 135 0 135 -135 0 -135 0 0 -135z"/>
<path d="M1541 1104 c-184 -49 -338 -203 -395 -393 -20 -69 -21 -217 -1 -291
59 -220 245 -384 471 -412 180 -23 335 31 465 161 86 87 131 166 154 276 18
88 19 142 0 230 -44 207 -203 376 -405 430 -69 19 -218 18 -289 -1z m261 -136
c91 -19 211 -116 258 -208 97 -190 43 -418 -128 -540 -255 -183 -614 -30 -662
283 -28 178 71 362 236 439 98 46 175 53 296 26z"/>
<path d="M1570 820 c-18 -18 -20 -33 -20 -189 l0 -170 26 -20 c24 -19 40 -21
186 -21 155 0 159 1 183 25 30 30 31 54 4 89 -20 25 -23 26 -140 26 l-119 0 0
114 c0 99 -3 117 -21 140 -25 32 -70 35 -99 6z"/>
<path d="M282 843 l3 -138 138 -3 137 -3 0 141 0 140 -140 0 -141 0 3 -137z"/>
<path d="M702 843 l3 -138 138 -3 137 -3 0 141 0 140 -140 0 -141 0 3 -137z"/>
</g>
</svg>
